# xmcd CD database file
#
# Track frame offsets:
#	150
#	28840
#	44017
#	70191
#	98670
#	108241
#	135846
#	155384
#	189429
#	207904
#	238198
#	260842
#	281051
#
# Disc length: 4429 seconds
#
# Revision: 0
# Processed by: cddbd v1.5.2PL0 Copyright (c) Steve Scherf et al.
# Submitted via: CDex 1.70beta2
#
DISCID=ba114b0d
DTITLE=Médéric Collignon - Porgy and Bess
DYEAR=2006
DGENRE=Jazz
TTITLE0=My Man's Gone Now
TTITLE1=The Buzzard Song
TTITLE2=Bess, You Is My Woman Now
TTITLE3=Gone
TTITLE4=Gone, gone, gone
TTITLE5=I loves You, Porgy
TTITLE6=Bess, Oh Where's My Bess
TTITLE7=Prayer (Oh Doctor Jesus)
TTITLE8=Fisherman, Strawberry and Devis Crab
TTITLE9=Here Come De Honey Man
TTITLE10=My Ship
TTITLE11=It Ain't Necessarily So
TTITLE12=Mood
EXTD=YEAR: 2006
EXTT0=
EXTT1=
EXTT2=
EXTT3=
EXTT4=
EXTT5=
EXTT6=
EXTT7=
EXTT8=
EXTT9=
EXTT10=
EXTT11=
EXTT12=
PLAYORDER=
